<?xml version="1.0" encoding="utf-8"?>
<!-- Generator: Adobe Illustrator 26.3.1, SVG Export Plug-In . SVG Version: 6.00 Build 0)  -->
<svg version="1.1" id="Layer_1" xmlns="http://www.w3.org/2000/svg" xmlns:xlink="http://www.w3.org/1999/xlink" x="0px" y="0px"
	 viewBox="0 0 440.4 404" style="enable-background:new 0 0 440.4 404;" xml:space="preserve">
<style type="text/css">
	.st0{fill:url(#SVGID_1_);}
	.st1{fill:url(#SVGID_00000058586324945548847410000003133811001777719714_);}
	.st2{fill:url(#SVGID_00000062893731616736622570000008940391494711032766_);}
	.st3{fill:url(#SVGID_00000145769738981751771610000010254107592129529777_);}
	.st4{fill:url(#SVGID_00000148657732082204234660000009121580845917876393_);}
	.st5{opacity:0.5;fill:url(#SVGID_00000067228148016039487330000008438972861651697328_);}
	.st6{opacity:0.5;fill:url(#SVGID_00000041995756089670246400000014185053801950970501_);}
</style>
<g>
	<g>
		<path d="M112.2,275c-3,0.9-6.3,1.4-9.7,1.4c-6,0-10.6-1.6-13.8-4.9c-2.9-2.9-4.5-7.2-4.8-12.9H126v-4c0-6-1-11.3-3.1-15.8
			c-2.1-4.5-5.1-8-9-10.5c-3.9-2.5-8.9-3.7-14.7-3.7c-6,0-11.2,1.3-15.6,4c-4.5,2.7-7.9,6.4-10.4,11.1c-2.5,4.8-3.7,10.3-3.7,16.7
			c0,9.8,2.9,17.5,8.7,23.2c5.8,5.6,13.8,8.5,24,8.5c4.5,0,8.8-0.6,12.8-1.9c4-1.3,7.5-3.1,10.4-5.4l-4.5-10.1
			C118.1,272.6,115.2,274.1,112.2,275z M99.3,235c4.5,0,7.9,1.5,10.3,4.5c2.1,2.7,3.3,6.4,3.5,11.2H84c0.5-4.3,1.8-7.7,3.8-10.4
			C90.5,236.7,94.3,235,99.3,235z"/>
		<polygon points="169,255.3 192.8,225.8 175,225.8 160.2,244.9 145.4,225.8 127.6,225.8 151.6,255.3 126,286.8 143.9,286.8 
			160.2,266 176.5,286.8 194.5,286.8 		"/>
		<path d="M224.8,288c1.5,0,3.1-0.1,4.8-0.4c1.6-0.3,3.2-0.7,4.5-1.3v-12c-1,0.4-2.1,0.7-3.2,1c-1.1,0.2-2.4,0.4-3.9,0.4
			c-2.8,0-5-0.8-6.6-2.5c-1.6-1.7-2.4-4.6-2.4-8.8v-27.2h16.3v-11.3h-16.3v-19.4l0-0.5h-15.1v59.4c0,7.6,1.9,13.2,5.6,17
			C212,286.1,217.5,288,224.8,288z"/>
		<rect x="74.7" y="341.2" width="15.1" height="61"/>
		<rect x="103.2" y="313.3" width="15.1" height="88.9"/>
		<rect x="131.7" y="313.3" width="15.1" height="88.9"/>
		<rect x="160.2" y="341.2" width="15.1" height="61"/>
		<path d="M232.5,343.9c-4.6-2.6-10.1-3.9-16.4-3.9c-6.3,0-11.7,1.3-16.3,3.9c-4.6,2.6-8.1,6.2-10.7,10.9
			c-2.5,4.7-3.8,10.3-3.8,16.8c0,6.5,1.3,12.2,3.8,16.9c2.5,4.8,6.1,8.4,10.7,11c4.6,2.6,10,3.9,16.3,3.9c6.3,0,11.7-1.3,16.4-3.9
			c4.6-2.6,8.2-6.2,10.7-11c2.5-4.7,3.8-10.4,3.8-16.9c0-6.5-1.3-12.1-3.8-16.8C240.8,350.1,237.2,346.5,232.5,343.9z M227.5,386.8
			c-2.8,3.3-6.6,5-11.3,5s-8.5-1.7-11.3-5c-2.8-3.3-4.2-8.4-4.2-15.1c0-6.8,1.4-11.8,4.2-15.1c2.8-3.3,6.6-4.9,11.3-4.9
			s8.5,1.7,11.3,4.9c2.8,3.3,4.2,8.3,4.2,15.1C231.8,378.4,230.3,383.5,227.5,386.8z"/>
		<linearGradient id="SVGID_1_" gradientUnits="userSpaceOnUse" x1="286.1974" y1="342.1622" x2="389.4598" y2="445.4246">
			<stop  offset="0.4045" style="stop-color:#875EA7"/>
			<stop  offset="0.5903" style="stop-color:#3760AB"/>
			<stop  offset="0.6817" style="stop-color:#1461AD"/>
		</linearGradient>
		<path class="st0" d="M338.1,385.6H338c-4.6,0-8.4,3.8-8.4,8.4s3.8,8.4,8.4,8.4h0.1c4.6,0,8.4-3.8,8.4-8.4S342.7,385.6,338.1,385.6
			z"/>
		
			<linearGradient id="SVGID_00000020378293412876859030000002336124452211618947_" gradientUnits="userSpaceOnUse" x1="346.2673" y1="285.1555" x2="449.5298" y2="388.418">
			<stop  offset="0.4045" style="stop-color:#875EA7"/>
			<stop  offset="0.5903" style="stop-color:#3760AB"/>
			<stop  offset="0.6817" style="stop-color:#1461AD"/>
		</linearGradient>
		
			<rect x="425.3" y="341.2" style="fill:url(#SVGID_00000020378293412876859030000002336124452211618947_);" width="15.1" height="61"/>
		<path d="M48.1,342.8c-4.7-2.6-10.3-3.9-16.7-3.9c-6.1,0-11.4,1.2-16,3.6v-29.1H0.1v57.7h0c0,6.6,1.3,12.4,3.9,17.2
			c2.6,4.8,6.2,8.6,10.9,11.2c4.7,2.6,10.2,3.9,16.6,3.9c6.4,0,11.9-1.3,16.7-3.9c4.7-2.6,8.4-6.4,10.9-11.2
			c2.6-4.8,3.9-10.6,3.9-17.2c0-6.6-1.3-12.4-3.9-17.2C56.5,349.1,52.8,345.4,48.1,342.8z M42.9,386.5c-2.9,3.4-6.7,5.1-11.6,5.1
			c-4.8,0-8.7-1.7-11.6-5.1c-2.9-3.4-4.3-8.5-4.3-15.4c0-6.9,1.4-12,4.3-15.4c2.9-3.4,6.7-5,11.6-5c4.8,0,8.7,1.7,11.6,5
			c2.9,3.4,4.3,8.5,4.3,15.4C47.2,377.9,45.8,383.1,42.9,386.5z"/>
		
			<linearGradient id="SVGID_00000093890786959308035680000013089900065093212346_" gradientUnits="userSpaceOnUse" x1="320.6485" y1="310.7744" x2="423.9109" y2="414.0368">
			<stop  offset="0.4045" style="stop-color:#875EA7"/>
			<stop  offset="0.5903" style="stop-color:#3760AB"/>
			<stop  offset="0.6817" style="stop-color:#1461AD"/>
		</linearGradient>
		<path style="fill:url(#SVGID_00000093890786959308035680000013089900065093212346_);" d="M409,354.9c-2.6-4.8-6.1-8.5-10.8-11.1
			c-4.6-2.6-10.1-3.9-16.4-3.9c-6.3,0-11.8,1.3-16.5,3.9c-4.7,2.6-8.3,6.3-10.8,11.1c-2.6,4.8-3.8,10.5-3.8,17
			c0,6.6,1.3,12.2,3.8,17c2.6,4.7,6.2,8.4,10.8,11c4.7,2.6,10.2,3.9,16.5,3.9c6.1,0,11.3-1.2,15.8-3.6l-0.1,3.7l15.3,0.1v-32.1h0
			C412.8,365.3,411.6,359.6,409,354.9z M393.3,387.2c-2.8,3.3-6.7,5-11.4,5c-4.8,0-8.6-1.7-11.4-5c-2.8-3.3-4.3-8.4-4.3-15.2
			c0-6.8,1.4-11.9,4.3-15.3c2.8-3.4,6.7-5.1,11.4-5.1c4.8,0,8.6,1.7,11.4,5.1c2.8,3.4,4.3,8.5,4.3,15.3
			C397.6,378.8,396.2,383.8,393.3,387.2z"/>
		<path d="M302.9,343.4c-4.7-2.6-10.2-3.9-16.5-3.9c-6.3,0-11.8,1.3-16.5,3.9s-8.2,6.3-10.8,11c-2.6,4.8-3.8,10.4-3.8,17v30.8h15.4
			v-30.8h0c0-6.8,1.4-11.9,4.3-15.3c2.8-3.3,6.7-5,11.5-5c4.8,0,8.6,1.7,11.5,5c2.8,3.3,4.3,8.4,4.3,15.3c0,0,0,0,0,0.1h0.1v30.8
			h15.4v-30.8c0-6.6-1.3-12.3-3.8-17C311.2,349.7,307.6,346,302.9,343.4z"/>
		<path d="M15.4,256L15.4,256c0-6.8,1.4-11.9,4.2-15.3c2.8-3.3,6.7-5,11.5-5c4.8,0,8.6,1.7,11.5,5c2.8,3.3,4.3,8.4,4.3,15.3
			c0,0,0,0,0,0.1H47v30.8h15.4V256c0-6.6-1.3-12.3-3.8-17c-2.6-4.8-6.2-8.4-10.9-11c-4.7-2.6-10.2-3.9-16.5-3.9
			c-6.3,0-11.8,1.3-16.5,3.9c-4.6,2.6-8.2,6.3-10.8,11C1.3,243.7,0,249.4,0,256v30.8h15.4V256z"/>
		
			<linearGradient id="SVGID_00000076570478908173570700000014479986318836812985_" gradientUnits="userSpaceOnUse" x1="369.4456" y1="261.9772" x2="472.7081" y2="365.2397">
			<stop  offset="0.4045" style="stop-color:#875EA7"/>
			<stop  offset="0.5903" style="stop-color:#3760AB"/>
			<stop  offset="0.6817" style="stop-color:#1461AD"/>
		</linearGradient>
		<path style="fill:url(#SVGID_00000076570478908173570700000014479986318836812985_);" d="M432.9,317.8c-2.1,0-4.1,0.9-5.6,2.4
			c-1.4,1.5-2.2,3.5-2.1,5.5c0.2,4,3.5,7.2,7.5,7.2h7.6v-7.7C440.4,321.2,437,317.8,432.9,317.8z"/>
		<path d="M167.7,333h7.6v-7.7c0-4.1-3.3-7.4-7.4-7.4c-2.1,0-4.1,0.9-5.6,2.4c-1.4,1.5-2.2,3.5-2.1,5.5
			C160.3,329.8,163.6,333,167.7,333z"/>
		<path d="M82.2,333h7.6v-7.7c0-4.1-3.3-7.4-7.4-7.4c-2.1,0-4.1,0.9-5.6,2.4c-1.4,1.5-2.2,3.5-2.1,5.5C74.8,329.8,78.1,333,82.2,333
			z"/>
	</g>
	<g>
		<g>
			<g>
				<g>
					
						<linearGradient id="SVGID_00000081643987401926720370000004263057932516211618_" gradientUnits="userSpaceOnUse" x1="188.388" y1="84.3086" x2="344.3081" y2="240.2287">
						<stop  offset="0.4045" style="stop-color:#875EA7"/>
						<stop  offset="0.5903" style="stop-color:#3760AB"/>
						<stop  offset="0.6817" style="stop-color:#1461AD"/>
					</linearGradient>
					<path style="fill:url(#SVGID_00000081643987401926720370000004263057932516211618_);" d="M419.2,177c-2.3-2.7-4.8-5.2-7.5-7.5
						c-14.9-13.2-34.6-21.2-56.1-21.2h-63.5V84.7c0-21.5-8-41.1-21.2-56.1c-2.3-2.7-4.8-5.2-7.5-7.5C248.5,8,228.9,0,207.4,0
						c-21.5,0-41.1,8-56,21.2c-2.7,2.4-5.2,4.9-7.5,7.5c-13.2,14.9-21.2,34.5-21.2,56v63.5c0,11.7,9.5,21.2,21.2,21.2H271V233
						c0,15.4,4.1,29.9,11.3,42.4c0.4,0.6,0.7,1.3,1.1,1.9c2.6,4.2,5.5,8.2,8.7,11.8c2.3,2.6,4.8,5.1,7.5,7.5
						c3.7,3.2,7.6,6.2,11.8,8.7c0.6,0.4,1.3,0.8,1.9,1.1c12.5,7.2,26.9,11.3,42.4,11.3c21.5,0,41.1-8,56.1-21.2
						c2.7-2.4,5.2-4.9,7.5-7.5c13.2-14.9,21.2-34.6,21.2-56.1C440.4,211.5,432.4,191.9,419.2,177z M271,148.3H143.9V84.7
						c0-35.1,28.5-63.6,63.6-63.6c35.1,0,63.6,28.5,63.6,63.6V148.3z M355.7,296.6c-16.3,0-31.1-6.1-42.4-16.2c-1.8-1.6-3.4-3.2-5-5
						c-10.1-11.2-16.2-26.1-16.2-42.4v-63.6h63.5c35.1,0,63.6,28.5,63.6,63.6S390.8,296.6,355.7,296.6z"/>
				</g>
			</g>
		</g>
		
			<linearGradient id="SVGID_00000165230666174695074830000009522844381686440858_" gradientUnits="userSpaceOnUse" x1="4789.5957" y1="5555.8662" x2="4861.6099" y2="5555.8662" gradientTransform="matrix(-1 0 0 -1 5155.8003 5714.731)">
			<stop  offset="0.1991" style="stop-color:#231F20;stop-opacity:0"/>
			<stop  offset="0.4121" style="stop-color:#242136;stop-opacity:0.2659"/>
			<stop  offset="0.853" style="stop-color:#28276E;stop-opacity:0.8164"/>
			<stop  offset="1" style="stop-color:#292982"/>
		</linearGradient>
		<polygon style="opacity:0.5;fill:url(#SVGID_00000165230666174695074830000009522844381686440858_);" points="291.9,148.3 
			355.9,148.3 355.9,169.4 291.9,169.4 		"/>
		
			<linearGradient id="SVGID_00000156574746289136093070000012652768318252077245_" gradientUnits="userSpaceOnUse" x1="227.8066" y1="124.0827" x2="299.8211" y2="124.0827" gradientTransform="matrix(1 0 0 1 -31.0633 34.7822)">
			<stop  offset="0.1991" style="stop-color:#231F20;stop-opacity:0"/>
			<stop  offset="0.4121" style="stop-color:#242136;stop-opacity:0.2659"/>
			<stop  offset="0.853" style="stop-color:#28276E;stop-opacity:0.8164"/>
			<stop  offset="1" style="stop-color:#292982"/>
		</linearGradient>
		
			<rect x="207.1" y="148.3" style="opacity:0.5;fill:url(#SVGID_00000156574746289136093070000012652768318252077245_);" width="64" height="21.2"/>
	</g>
</g>
</svg>
